<mxfile host="65bd71144e">
    <diagram id="JAQaUBbTIMKV8XyVQoZV" name="PÃ¡gina-1">
        <mxGraphModel dx="453" dy="183" grid="1" gridSize="10" guides="1" tooltips="1" connect="1" arrows="1" fold="1" page="1" pageScale="1" pageWidth="827" pageHeight="1169" math="0" shadow="0">
            <root>
                <mxCell id="0"/>
                <mxCell id="1" parent="0"/>
                <mxCell id="3" value="User" style="swimlane;fontStyle=0;childLayout=stackLayout;horizontal=1;startSize=26;fillColor=none;horizontalStack=0;resizeParent=1;resizeParentMax=0;resizeLast=0;collapsible=1;marginBottom=0;strokeWidth=2;" parent="1" vertex="1">
                    <mxGeometry x="10" y="10" width="100" height="86" as="geometry"/>
                </mxCell>
                <mxCell id="10" value="&lt;div&gt;&lt;font style=&quot;font-size: 12px&quot;&gt;&amp;nbsp;- id: int&lt;br&gt;&lt;/font&gt;&lt;/div&gt;&lt;div&gt;&lt;font style=&quot;font-size: 12px&quot;&gt;&amp;nbsp;- name: String&lt;/font&gt;&lt;/div&gt;&lt;div&gt;&lt;font style=&quot;font-size: 12px&quot;&gt;&amp;nbsp;- cpf: int&lt;/font&gt;&lt;/div&gt;&lt;div&gt;&lt;font style=&quot;font-size: 12px&quot;&gt;&amp;nbsp;- senha: String&lt;/font&gt;&lt;/div&gt;" style="text;html=1;align=left;verticalAlign=middle;resizable=0;points=[];autosize=1;strokeColor=none;fillColor=none;strokeWidth=2;" parent="3" vertex="1">
                    <mxGeometry y="26" width="100" height="60" as="geometry"/>
                </mxCell>
                <mxCell id="36" value="Movie" style="swimlane;fontStyle=0;childLayout=stackLayout;horizontal=1;startSize=26;fillColor=none;horizontalStack=0;resizeParent=1;resizeParentMax=0;resizeLast=0;collapsible=1;marginBottom=0;strokeWidth=2;" vertex="1" parent="1">
                    <mxGeometry x="230" y="10" width="110" height="76" as="geometry"/>
                </mxCell>
                <mxCell id="37" value="&lt;div&gt;&lt;font style=&quot;font-size: 12px&quot;&gt;&amp;nbsp;- name: string&lt;/font&gt;&lt;/div&gt;&lt;div&gt;&lt;font style=&quot;font-size: 12px&quot;&gt;&lt;span&gt;&amp;nbsp;- genre: string&lt;/span&gt;&lt;br&gt;&lt;/font&gt;&lt;/div&gt;&lt;div&gt;&lt;font style=&quot;font-size: 12px&quot;&gt;&amp;nbsp;- synopsis: string&lt;/font&gt;&lt;/div&gt;" style="text;html=1;align=left;verticalAlign=middle;resizable=0;points=[];autosize=1;strokeColor=none;fillColor=none;strokeWidth=2;" vertex="1" parent="36">
                    <mxGeometry y="26" width="110" height="50" as="geometry"/>
                </mxCell>
            </root>
        </mxGraphModel>
    </diagram>
</mxfile>